<?xml version="1.0" standalone="no"?>
<!DOCTYPE svg PUBLIC "-//W3C//DTD SVG 20010904//EN"
 "http://www.w3.org/TR/2001/REC-SVG-20010904/DTD/svg10.dtd">
<svg version="1.0" xmlns="http://www.w3.org/2000/svg"
 width="300.000000pt" height="300.000000pt" viewBox="0 0 300.000000 300.000000"
 preserveAspectRatio="xMidYMid meet">

<g transform="translate(0.000000,300.000000) scale(0.100000,-0.100000)"
fill="#000000" stroke="none">
<path d="M1310 2990 c-513 -72 -937 -376 -1160 -835 -56 -116 -92 -219 -122
-360 -31 -144 -31 -445 0 -588 64 -292 190 -530 392 -740 205 -215 452 -356
743 -425 103 -24 129 -27 327 -27 240 0 304 9 490 71 214 71 407 192 575 359
167 168 288 361 359 575 61 185 71 251 71 485 0 183 -3 223 -23 315 -130 581
-583 1028 -1169 1151 -112 23 -376 34 -483 19z m488 -275 c243 -63 433 -174
604 -353 164 -172 278 -393 324 -629 26 -130 23 -347 -5 -483 -102 -487 -484
-869 -971 -971 -136 -28 -353 -31 -483 -5 -415 81 -767 368 -926 754 -58 139
-83 262 -88 432 -8 235 29 405 131 607 90 180 239 351 399 461 146 101 357
186 522 212 33 5 134 7 225 6 140 -3 181 -8 268 -31z"/>
<path d="M1033 2135 c-243 -162 -447 -303 -452 -314 -12 -22 -16 -607 -5 -636
4 -9 203 -148 443 -308 325 -217 445 -292 471 -295 32 -3 76 24 450 274 228
152 430 287 448 301 l32 24 0 318 c0 239 -3 321 -12 333 -24 30 -888 598 -911
598 -12 0 -215 -129 -464 -295z m387 -124 l0 -178 -174 -117 -175 -117 -128
88 c-71 48 -129 93 -130 98 -1 10 584 405 600 405 4 0 7 -80 7 -179z m470 -21
c165 -110 300 -202 300 -205 0 -3 -61 -45 -135 -95 l-135 -90 -168 112 -167
113 -3 183 c-1 100 0 182 3 182 3 0 140 -90 305 -200z m-232 -408 c61 -41 112
-78 111 -81 0 -8 -261 -181 -272 -181 -4 0 -69 41 -143 91 l-136 91 138 93
c136 91 140 93 164 77 14 -8 76 -49 138 -90z m-828 -14 c49 -34 90 -65 90 -68
0 -6 -173 -120 -183 -120 -4 0 -7 56 -7 125 0 69 2 125 5 125 2 0 45 -28 95
-62z m1426 -185 c-2 -3 -46 23 -96 57 -51 34 -88 65 -84 70 5 4 47 33 94 64
l85 56 3 -121 c1 -67 1 -124 -2 -126z m-1002 -98 l166 -110 0 -183 c0 -101 -4
-182 -9 -180 -17 6 -610 403 -610 408 -1 10 264 180 275 178 6 -2 86 -52 178
-113z m806 28 c72 -47 130 -89 130 -92 0 -3 -138 -97 -305 -209 l-305 -202 0
183 0 184 168 111 c92 62 170 112 175 112 4 0 66 -39 137 -87z"/>
</g>
</svg>
