<?xml version="1.0" standalone="no"?>
<!DOCTYPE svg PUBLIC "-//W3C//DTD SVG 20010904//EN"
 "http://www.w3.org/TR/2001/REC-SVG-20010904/DTD/svg10.dtd">
<svg version="1.0" xmlns="http://www.w3.org/2000/svg"
 width="900.000000pt" height="900.000000pt" viewBox="0 0 900.000000 900.000000"
 preserveAspectRatio="xMidYMid meet">

<g transform="translate(0.000000,900.000000) scale(0.100000,-0.100000)"
fill="#000000" stroke="none">
<path d="M2238 7180 c-153 -26 -275 -86 -373 -185 -116 -116 -175 -261 -175
-429 1 -250 132 -463 346 -562 192 -90 476 -86 668 7 141 69 261 205 307 347
30 95 37 247 15 346 -39 174 -161 332 -316 409 -127 64 -325 92 -472 67z"/>
<path d="M5790 5521 c-376 -34 -677 -205 -890 -505 l-55 -77 -3 250 -2 251
-603 0 -602 0 -1 -1815 0 -1815 603 0 603 0 0 1088 c0 1189 -1 1161 59 1281
75 152 177 261 303 324 101 51 173 67 296 67 180 0 295 -43 404 -151 112 -112
174 -270 198 -508 6 -64 10 -482 10 -1102 l0 -999 600 0 600 0 0 1118 c0 700
-4 1160 -11 1232 -68 753 -469 1238 -1109 1343 -120 20 -290 27 -400 18z"/>
<path d="M1760 3625 l0 -1815 600 0 600 0 0 1815 0 1815 -600 0 -600 0 0
-1815z"/>
</g>
</svg>
