<svg xmlns="http://www.w3.org/2000/svg" xmlns:xlink="http://www.w3.org/1999/xlink" width="1000" zoomAndPan="magnify" viewBox="0 0 750 299.999988" height="400" preserveAspectRatio="xMidYMid meet" version="1.0"><defs><clipPath id="5a760152c3"><path d="M 366 27.164062 L 432 27.164062 L 432 147.546875 L 366 147.546875 Z M 366 27.164062 " clip-rule="nonzero"/></clipPath><clipPath id="cb43c6f7eb"><path d="M 282.761719 3.398438 L 457.699219 3.398438 L 457.699219 136 L 282.761719 136 Z M 282.761719 3.398438 " clip-rule="nonzero"/></clipPath></defs><g clip-path="url(#5a760152c3)"><path fill="#f4f5ff" d="M 405.765625 104.550781 L 405.765625 92.675781 C 420.640625 89.535156 431.699219 76.429688 431.699219 60.597656 C 431.699219 42.441406 417.09375 27.839844 398.933594 27.839844 C 380.785156 27.839844 366.179688 42.578125 366.179688 60.734375 C 366.179688 76.429688 377.234375 89.671875 392.113281 92.808594 L 392.113281 104.6875 C 389.792969 105.234375 388.015625 107.414062 388.015625 110.011719 L 388.015625 142.765625 C 388.015625 145.769531 390.472656 148.226562 393.476562 148.226562 L 404.394531 148.226562 C 407.398438 148.226562 409.855469 145.769531 409.855469 142.765625 L 409.855469 109.871094 C 409.855469 107.277344 408.082031 105.234375 405.765625 104.550781 Z M 371.636719 60.734375 C 371.636719 45.71875 383.917969 33.429688 398.933594 33.429688 C 413.949219 33.429688 426.238281 45.71875 426.238281 60.734375 C 426.238281 75.75 413.949219 88.035156 398.933594 88.035156 C 383.917969 88.035156 371.636719 75.75 371.636719 60.734375 Z M 400.304688 93.492188 L 400.304688 104.410156 L 397.570312 104.410156 L 397.570312 93.492188 Z M 404.394531 142.636719 L 393.476562 142.636719 L 393.476562 109.871094 L 404.394531 109.871094 Z M 404.394531 142.636719 " fill-opacity="1" fill-rule="nonzero"/></g><path fill="#f4f5ff" d="M 419 52.136719 C 405.625 52.40625 393.066406 55.136719 382.285156 60.1875 C 381.871094 60.320312 381.464844 60.460938 381.195312 60.460938 C 380.101562 60.460938 379.144531 59.914062 378.738281 58.820312 C 378.050781 57.457031 378.738281 55.816406 380.101562 55.136719 C 390.609375 50.226562 402.894531 47.492188 415.730469 46.8125 C 412.996094 43.535156 409.308594 41.078125 404.941406 39.84375 C 396.886719 41.214844 389.246094 43.394531 382.417969 46.535156 C 379.144531 50.226562 377.097656 55.277344 377.097656 60.734375 C 377.097656 63.871094 377.78125 66.875 379.007812 69.605469 C 379.285156 69.199219 379.554688 68.921875 379.960938 68.789062 C 391.835938 63.324219 405.894531 60.320312 420.640625 60.1875 C 420.640625 57.457031 420.09375 54.589844 419 52.136719 Z M 419 52.136719 " fill-opacity="1" fill-rule="nonzero"/><g clip-path="url(#cb43c6f7eb)"><path fill="#f4f5ff" d="M 451.757812 7.636719 C 442.339844 4.902344 432.246094 3.398438 421.734375 3.398438 C 402.214844 3.398438 383.511719 8.453125 370.136719 17.460938 C 356.890625 8.453125 338.332031 3.398438 318.8125 3.398438 C 308.304688 3.398438 298.199219 4.769531 288.78125 7.636719 C 285.371094 8.589844 282.914062 11.863281 282.914062 15.414062 L 282.914062 118.472656 C 282.914062 121.066406 284 123.386719 286.050781 124.886719 C 288.097656 126.386719 290.554688 127.074219 293.011719 126.386719 C 301.203125 124.480469 309.804688 123.386719 318.675781 123.386719 C 336.695312 123.386719 353.480469 127.480469 366.039062 134.851562 C 367.269531 135.675781 368.773438 135.945312 370.136719 135.945312 C 371.5 135.945312 373 135.535156 374.234375 134.851562 C 376.828125 133.351562 379.554688 131.988281 382.417969 130.753906 L 382.417969 114.652344 C 382.285156 114.652344 382.285156 114.652344 382.148438 114.785156 C 381.742188 114.921875 381.332031 115.0625 381.054688 115.0625 C 379.960938 115.0625 379.007812 114.515625 378.597656 113.421875 C 377.914062 112.058594 378.597656 110.417969 379.960938 109.742188 C 380.785156 109.324219 381.742188 109.054688 382.554688 108.648438 C 382.832031 105.773438 384.335938 103.050781 386.652344 101.269531 L 386.652344 99.230469 C 385.152344 99.769531 383.789062 100.453125 382.285156 101 C 381.871094 101.140625 381.464844 101.269531 381.195312 101.269531 C 380.101562 101.269531 379.144531 100.730469 378.738281 99.636719 C 378.050781 98.265625 378.738281 96.632812 380.101562 95.949219 C 380.917969 95.542969 381.601562 95.265625 382.417969 94.996094 C 369.449219 88.851562 360.71875 75.613281 360.71875 60.734375 C 360.71875 60.460938 360.71875 60.1875 360.71875 60.050781 C 360.308594 60.320312 359.765625 60.460938 359.355469 60.460938 C 358.941406 60.460938 358.53125 60.320312 358.261719 60.1875 C 346.796875 54.859375 333.144531 52.136719 318.8125 52.136719 C 311.4375 52.136719 304.066406 52.953125 297.246094 54.3125 C 295.742188 54.589844 294.378906 53.636719 293.964844 52.273438 C 293.695312 50.773438 294.652344 49.402344 296.011719 48.992188 C 303.25 47.492188 311.027344 46.675781 318.8125 46.675781 C 333.960938 46.675781 348.429688 49.679688 360.582031 55.277344 C 360.855469 55.40625 360.988281 55.546875 361.125 55.683594 C 363.445312 38.484375 377.097656 24.96875 394.300781 22.789062 C 402.894531 20.464844 412.179688 19.238281 421.867188 19.238281 C 429.652344 19.238281 437.289062 20.054688 444.667969 21.558594 C 446.167969 21.835938 447.125 23.335938 446.714844 24.835938 C 446.300781 26.339844 444.9375 27.292969 443.433594 26.878906 C 436.472656 25.375 429.242188 24.699219 421.867188 24.699219 C 418.863281 24.699219 415.859375 24.835938 412.996094 25.105469 C 417.640625 26.878906 421.734375 29.613281 425.285156 33.023438 C 431.832031 33.160156 438.382812 33.976562 444.527344 35.339844 C 446.03125 35.617188 446.984375 37.121094 446.578125 38.621094 C 446.300781 40.121094 444.796875 41.078125 443.296875 40.667969 C 439.070312 39.714844 434.5625 39.167969 430.058594 38.757812 C 434.5625 45.035156 437.160156 52.542969 437.160156 60.734375 C 437.160156 61.003906 437.160156 61.144531 437.160156 61.414062 C 439.617188 61.820312 442.210938 62.238281 444.527344 62.644531 C 446.03125 62.914062 446.984375 64.417969 446.578125 65.917969 C 446.167969 67.421875 444.796875 68.375 443.296875 67.964844 C 441.117188 67.558594 438.792969 67.148438 436.613281 66.742188 C 436.203125 69.605469 435.378906 72.332031 434.285156 74.929688 C 434.285156 74.789062 434.425781 74.65625 434.425781 74.519531 C 437.835938 74.929688 441.253906 75.472656 444.527344 76.160156 C 446.03125 76.429688 446.984375 77.929688 446.578125 79.433594 C 446.167969 80.933594 444.796875 81.890625 443.296875 81.480469 C 439.617188 80.664062 435.789062 80.117188 431.832031 79.710938 C 430.199219 82.574219 428.148438 85.167969 425.824219 87.488281 C 432.109375 87.765625 438.382812 88.441406 444.390625 89.671875 C 445.890625 89.941406 446.847656 91.445312 446.4375 92.945312 C 446.03125 94.449219 444.667969 95.402344 443.164062 94.996094 C 436.203125 93.492188 428.964844 92.808594 421.597656 92.808594 C 420.78125 92.808594 419.816406 92.808594 419 92.808594 C 416.546875 94.449219 413.8125 95.679688 410.949219 96.632812 L 410.949219 101.140625 C 411.085938 101.269531 411.222656 101.410156 411.355469 101.546875 C 414.773438 101.269531 418.1875 101.140625 421.597656 101.140625 C 429.375 101.140625 437.019531 101.957031 444.390625 103.457031 C 445.890625 103.734375 446.847656 105.234375 446.4375 106.738281 C 446.03125 108.238281 444.667969 109.195312 443.164062 108.777344 C 436.203125 107.277344 428.964844 106.597656 421.597656 106.597656 C 419.277344 106.597656 416.953125 106.738281 414.636719 106.867188 C 414.90625 107.824219 415.042969 108.777344 415.042969 109.871094 L 415.042969 123.664062 C 417.230469 123.523438 419.410156 123.523438 421.597656 123.523438 C 430.46875 123.523438 439.207031 124.480469 447.261719 126.527344 C 449.71875 127.074219 452.304688 126.527344 454.222656 125.027344 C 456.261719 123.523438 457.355469 121.066406 457.355469 118.609375 L 457.355469 15.414062 C 457.632812 11.863281 455.175781 8.589844 451.757812 7.636719 Z M 361.8125 113.421875 C 361.394531 114.375 360.308594 115.0625 359.355469 115.0625 C 358.941406 115.0625 358.53125 114.921875 358.261719 114.785156 C 346.796875 109.464844 333.144531 106.738281 318.8125 106.738281 C 311.4375 106.738281 304.066406 107.554688 297.246094 108.917969 C 295.742188 109.195312 294.378906 108.238281 293.964844 106.867188 C 293.695312 105.367188 294.652344 104.003906 296.011719 103.59375 C 303.25 102.09375 311.027344 101.269531 318.8125 101.269531 C 333.960938 101.269531 348.429688 104.273438 360.582031 109.871094 C 361.8125 110.417969 362.488281 112.058594 361.8125 113.421875 Z M 361.8125 99.769531 C 361.394531 100.730469 360.308594 101.410156 359.355469 101.410156 C 358.941406 101.410156 358.53125 101.269531 358.261719 101.140625 C 346.796875 95.8125 333.144531 93.085938 318.8125 93.085938 C 311.4375 93.085938 304.066406 93.902344 297.246094 95.265625 C 295.742188 95.542969 294.378906 94.585938 293.964844 93.222656 C 293.695312 91.722656 294.652344 90.351562 296.011719 89.941406 C 303.25 88.441406 311.027344 87.625 318.8125 87.625 C 333.960938 87.625 348.429688 90.628906 360.582031 96.226562 C 361.8125 96.765625 362.488281 98.40625 361.8125 99.769531 Z M 361.8125 86.125 C 361.394531 87.078125 360.308594 87.765625 359.355469 87.765625 C 358.941406 87.765625 358.53125 87.625 358.261719 87.488281 C 346.796875 82.164062 333.144531 79.433594 318.8125 79.433594 C 311.4375 79.433594 304.066406 80.257812 297.246094 81.621094 C 295.742188 81.890625 294.378906 80.933594 293.964844 79.570312 C 293.695312 78.070312 294.652344 76.707031 296.011719 76.289062 C 303.25 74.789062 311.027344 73.972656 318.8125 73.972656 C 333.960938 73.972656 348.429688 76.976562 360.582031 82.574219 C 361.8125 83.121094 362.488281 84.761719 361.8125 86.125 Z M 296.011719 62.644531 C 303.25 61.144531 311.027344 60.320312 318.8125 60.320312 C 333.960938 60.320312 348.429688 63.324219 360.582031 68.921875 C 361.941406 69.605469 362.488281 71.246094 361.941406 72.609375 C 361.535156 73.566406 360.441406 74.25 359.488281 74.25 C 359.078125 74.25 358.671875 74.113281 358.394531 73.972656 C 346.925781 68.652344 333.28125 65.917969 318.945312 65.917969 C 311.574219 65.917969 304.207031 66.742188 297.382812 68.105469 C 295.882812 68.375 294.511719 67.421875 294.105469 66.058594 C 293.558594 64.417969 294.511719 62.914062 296.011719 62.644531 Z M 361.8125 45.175781 C 361.394531 46.128906 360.308594 46.8125 359.355469 46.8125 C 358.941406 46.8125 358.53125 46.675781 358.261719 46.535156 C 346.796875 41.214844 333.144531 38.484375 318.8125 38.484375 C 311.4375 38.484375 304.066406 39.304688 297.246094 40.667969 C 295.742188 40.9375 294.378906 39.984375 293.964844 38.621094 C 293.695312 37.121094 294.652344 35.757812 296.011719 35.339844 C 303.25 33.839844 311.027344 33.023438 318.8125 33.023438 C 333.960938 33.023438 348.429688 36.027344 360.582031 41.625 C 361.8125 42.171875 362.488281 43.8125 361.8125 45.175781 Z M 361.8125 31.519531 C 361.394531 32.476562 360.308594 33.160156 359.355469 33.160156 C 358.941406 33.160156 358.53125 33.023438 358.261719 32.882812 C 346.796875 27.5625 333.144531 24.835938 318.8125 24.835938 C 311.4375 24.835938 304.066406 25.652344 297.246094 27.015625 C 295.742188 27.292969 294.378906 26.339844 293.964844 24.96875 C 293.695312 23.46875 294.652344 22.105469 296.011719 21.695312 C 303.25 20.195312 311.027344 19.371094 318.8125 19.371094 C 333.960938 19.371094 348.429688 22.375 360.582031 27.972656 C 361.8125 28.519531 362.488281 30.160156 361.8125 31.519531 Z M 361.8125 31.519531 " fill-opacity="1" fill-rule="nonzero"/></g><path fill="#f4f5ff" d="M 420.234375 65.789062 C 406.441406 65.917969 393.335938 68.789062 382.417969 73.835938 C 382.148438 73.972656 382.011719 73.972656 381.742188 74.113281 C 383.371094 76.289062 385.421875 78.070312 387.878906 79.570312 C 396.617188 76.566406 406.3125 74.65625 416.40625 74.25 C 418.046875 71.65625 419.410156 68.789062 420.234375 65.789062 Z M 420.234375 65.789062 " fill-opacity="1" fill-rule="nonzero"/><path fill="#f4f5ff" d="M 178.523438 180.839844 C 177.003906 180.839844 175.664062 181.34375 174.492188 182.179688 C 173.308594 183.105469 172.472656 184.199219 171.96875 185.539062 L 157.441406 224.59375 C 157.273438 225.097656 157.1875 225.6875 157.1875 226.191406 C 157.1875 227.367188 157.523438 228.371094 158.359375 229.21875 C 159.207031 230.054688 160.210938 230.390625 161.386719 230.390625 C 163.238281 230.390625 164.578125 229.550781 165.335938 227.867188 L 168.609375 219.136719 L 188.683594 219.136719 L 191.957031 227.867188 C 192.632812 229.550781 193.972656 230.390625 195.90625 230.390625 C 197.078125 230.390625 198.003906 230.054688 198.84375 229.21875 C 199.683594 228.371094 200.105469 227.367188 200.105469 226.191406 C 200.105469 225.6875 200.015625 225.097656 199.847656 224.59375 L 185.324219 185.539062 C 184.820312 184.199219 183.894531 183.019531 182.71875 182.179688 C 181.460938 181.34375 180.03125 180.839844 178.523438 180.839844 Z M 171.546875 211.242188 L 178.601562 192.175781 L 185.746094 211.242188 Z M 171.546875 211.242188 " fill-opacity="1" fill-rule="nonzero"/><path fill="#f4f5ff" d="M 252.261719 237.78125 L 247.226562 230.8125 C 249.15625 230.644531 251.089844 230.304688 252.933594 229.71875 C 254.785156 229.128906 256.628906 228.203125 258.648438 226.863281 C 260.578125 225.601562 262.253906 224.003906 263.683594 222.160156 C 265.023438 220.308594 266.207031 217.875 267.125 214.851562 C 268.050781 211.914062 268.554688 208.550781 268.554688 204.777344 C 268.554688 200.492188 267.796875 196.714844 266.375 193.433594 C 264.945312 190.242188 263.011719 187.726562 260.660156 185.875 C 258.304688 184.03125 255.789062 182.683594 253.101562 181.765625 C 250.410156 180.917969 247.640625 180.417969 244.785156 180.417969 C 241.933594 180.417969 239.15625 180.917969 236.472656 181.765625 C 233.785156 182.683594 231.183594 184.03125 228.828125 185.875 C 226.472656 187.726562 224.542969 190.242188 223.121094 193.433594 C 221.691406 196.714844 221.019531 200.492188 221.019531 204.777344 C 221.019531 211.832031 222.363281 217.292969 225.21875 221.234375 C 228.070312 225.1875 231.683594 227.957031 236.050781 229.464844 L 245.710938 242.316406 C 246.546875 243.488281 247.640625 244.078125 248.980469 244.078125 C 250.074219 244.078125 251 243.742188 251.839844 242.90625 C 252.597656 242.066406 253.019531 241.140625 253.019531 240.046875 C 253.019531 239.378906 252.765625 238.621094 252.261719 237.78125 Z M 244.785156 222.664062 C 242.941406 222.664062 241.34375 222.496094 239.835938 222.074219 C 238.316406 221.65625 236.722656 220.898438 235.046875 219.726562 C 233.363281 218.546875 232.019531 216.78125 231.015625 214.265625 C 230 211.746094 229.585938 208.71875 229.585938 205.023438 C 229.585938 194.105469 234.621094 188.644531 244.785156 188.644531 C 254.863281 188.644531 259.988281 194.105469 259.988281 205.023438 C 259.988281 208.71875 259.484375 211.746094 258.480469 214.265625 C 257.464844 216.78125 256.207031 218.546875 254.527344 219.726562 C 252.851562 220.898438 251.257812 221.65625 249.738281 222.074219 C 248.230469 222.496094 246.546875 222.664062 244.785156 222.664062 Z M 244.785156 222.664062 " fill-opacity="1" fill-rule="nonzero"/><path fill="#f4f5ff" d="M 316.597656 207.882812 L 316.597656 185.117188 C 316.597656 183.945312 316.175781 182.9375 315.335938 182.101562 C 314.492188 181.253906 313.488281 180.839844 312.3125 180.839844 C 311.140625 180.839844 310.125 181.253906 309.289062 182.101562 C 308.449219 182.9375 308.027344 183.945312 308.027344 185.117188 L 308.027344 207.210938 C 308.027344 217.539062 304.164062 222.664062 296.523438 222.664062 C 288.878906 222.664062 285.101562 217.539062 285.101562 207.210938 L 285.101562 185.117188 C 285.101562 183.945312 284.679688 182.9375 283.839844 182.101562 C 283.003906 181.253906 281.992188 180.839844 280.816406 180.839844 C 279.644531 180.839844 278.628906 181.253906 277.792969 182.101562 C 276.953125 182.9375 276.53125 183.945312 276.53125 185.117188 L 276.53125 207.882812 C 276.53125 223.253906 283.171875 230.894531 296.523438 230.894531 C 309.878906 230.894531 316.597656 223.253906 316.597656 207.882812 Z M 316.597656 207.882812 " fill-opacity="1" fill-rule="nonzero"/><path fill="#f4f5ff" d="M 325.832031 185.117188 L 325.832031 226.105469 C 325.832031 227.285156 326.253906 228.292969 327.089844 229.128906 C 327.929688 229.96875 328.941406 230.390625 330.117188 230.390625 C 331.289062 230.390625 332.304688 229.96875 333.140625 229.128906 C 333.980469 228.292969 334.402344 227.285156 334.402344 226.105469 L 334.402344 185.117188 C 334.402344 183.945312 333.980469 182.9375 333.140625 182.101562 C 332.304688 181.253906 331.289062 180.839844 330.117188 180.839844 C 328.941406 180.839844 327.929688 181.253906 327.089844 182.101562 C 326.253906 182.9375 325.832031 183.945312 325.832031 185.117188 Z M 325.832031 185.117188 " fill-opacity="1" fill-rule="nonzero"/><path fill="#f4f5ff" d="M 359.511719 184.871094 L 359.511719 226.359375 C 359.511719 227.53125 359.84375 228.457031 360.691406 229.21875 C 361.441406 230.054688 362.367188 230.390625 363.539062 230.390625 L 388.828125 230.390625 C 389.832031 230.390625 390.757812 230.054688 391.597656 229.21875 C 392.433594 228.457031 392.859375 227.53125 392.859375 226.359375 C 392.859375 225.265625 392.433594 224.339844 391.597656 223.503906 C 390.757812 222.746094 389.832031 222.328125 388.828125 222.328125 L 368.082031 222.328125 L 368.082031 210.570312 L 384.285156 210.570312 C 385.296875 210.570312 386.21875 210.234375 387.0625 209.390625 C 387.902344 208.640625 388.324219 207.714844 388.324219 206.539062 C 388.324219 205.449219 387.902344 204.523438 387.0625 203.683594 C 386.21875 202.925781 385.296875 202.511719 384.285156 202.511719 L 368.082031 202.511719 L 368.082031 188.902344 L 388.828125 188.902344 C 389.832031 188.902344 390.757812 188.566406 391.597656 187.726562 C 392.433594 186.96875 392.859375 186.042969 392.859375 184.871094 C 392.859375 183.777344 392.433594 182.851562 391.597656 182.011719 C 390.757812 181.253906 389.832031 180.839844 388.828125 180.839844 L 363.539062 180.839844 C 362.367188 180.839844 361.441406 181.253906 360.691406 182.011719 C 359.84375 182.851562 359.511719 183.777344 359.511719 184.871094 Z M 359.511719 184.871094 " fill-opacity="1" fill-rule="nonzero"/><path fill="#f4f5ff" d="M 428.550781 189.570312 C 429.722656 189.570312 430.648438 189.238281 431.488281 188.398438 C 432.332031 187.640625 432.75 186.632812 432.75 185.460938 C 432.75 184.535156 432.414062 183.695312 431.742188 182.9375 C 431.070312 182.269531 430.3125 181.765625 429.476562 181.421875 C 426.875 180.753906 423.257812 180.417969 418.722656 180.417969 C 415.867188 180.417969 413.433594 180.671875 411.332031 181.007812 C 409.234375 181.34375 407.214844 182.011719 405.285156 183.019531 C 403.269531 184.03125 401.753906 185.460938 400.75 187.472656 C 399.65625 189.492188 399.152344 192.007812 399.152344 194.863281 C 399.152344 197.632812 400.167969 200.066406 402.179688 202.085938 C 404.195312 204.1875 406.632812 205.78125 409.570312 206.957031 C 412.425781 208.136719 415.363281 209.144531 418.222656 210.070312 C 421.078125 211.074219 423.59375 212.082031 425.613281 213.171875 C 427.625 214.347656 428.636719 215.609375 428.636719 216.949219 C 428.636719 220.8125 424.4375 222.664062 416.121094 222.664062 C 412.761719 222.664062 409.3125 222.074219 405.625 220.8125 C 405.117188 220.734375 404.78125 220.644531 404.613281 220.644531 C 403.605469 220.644531 402.769531 221.066406 402.097656 221.738281 C 401.421875 222.496094 401.085938 223.335938 401.085938 224.339844 C 401.085938 226.023438 401.753906 227.117188 403.105469 227.789062 C 407.636719 229.886719 412.675781 230.894531 418.222656 230.894531 C 424.015625 230.894531 428.636719 229.800781 432.078125 227.453125 C 435.4375 225.097656 437.203125 221.570312 437.203125 216.871094 C 437.203125 214.097656 436.195312 211.664062 434.175781 209.558594 C 432.164062 207.460938 429.644531 205.78125 426.785156 204.609375 C 423.847656 203.429688 420.910156 202.34375 418.054688 201.328125 C 415.195312 200.324219 412.761719 199.316406 410.742188 198.136719 C 408.730469 196.960938 407.726562 195.703125 407.726562 194.273438 C 407.726562 193.019531 408.058594 192.007812 408.8125 191.167969 C 409.488281 190.328125 410.574219 189.738281 411.921875 189.402344 C 413.265625 189.070312 414.527344 188.902344 415.53125 188.8125 C 416.539062 188.734375 417.886719 188.644531 419.480469 188.644531 C 421.996094 188.644531 425.023438 188.980469 428.550781 189.570312 Z M 428.550781 189.570312 " fill-opacity="1" fill-rule="nonzero"/><path fill="#f4f5ff" d="M 456.855469 189.070312 L 456.855469 226.105469 C 456.855469 227.285156 457.277344 228.292969 458.113281 229.128906 C 458.953125 229.96875 459.964844 230.390625 461.140625 230.390625 C 462.3125 230.390625 463.320312 229.96875 464.164062 229.128906 C 465.003906 228.292969 465.417969 227.285156 465.417969 226.105469 L 465.417969 189.070312 L 475.921875 189.070312 C 477.015625 189.070312 477.933594 188.734375 478.777344 187.894531 C 479.617188 187.050781 480.03125 186.132812 480.03125 184.949219 C 480.03125 183.863281 479.617188 182.9375 478.777344 182.101562 C 477.933594 181.253906 477.015625 180.839844 475.921875 180.839844 L 446.359375 180.839844 C 445.183594 180.839844 444.257812 181.253906 443.421875 182.101562 C 442.574219 182.9375 442.238281 183.863281 442.238281 184.949219 C 442.238281 186.132812 442.574219 187.050781 443.421875 187.894531 C 444.257812 188.734375 445.183594 189.070312 446.359375 189.070312 Z M 456.855469 189.070312 " fill-opacity="1" fill-rule="nonzero"/><path fill="#f4f5ff" d="M 525.472656 230.894531 C 530.429688 230.894531 534.707031 229.886719 538.324219 227.699219 C 539.664062 227.03125 540.335938 225.855469 540.335938 224.261719 C 540.335938 223.253906 539.921875 222.328125 539.074219 221.492188 C 538.234375 220.734375 537.308594 220.308594 536.304688 220.308594 C 535.722656 220.308594 535.132812 220.476562 534.628906 220.734375 C 532.027344 222.074219 528.914062 222.664062 525.386719 222.664062 C 523.957031 222.664062 522.617188 222.578125 521.355469 222.328125 C 520.09375 222.160156 518.753906 221.65625 517.242188 220.898438 C 515.726562 220.140625 514.386719 219.136719 513.292969 217.960938 C 512.199219 216.78125 511.28125 215.019531 510.601562 212.839844 C 509.851562 210.652344 509.515625 208.050781 509.515625 205.023438 C 509.515625 201.832031 509.933594 199.148438 510.859375 196.882812 C 511.785156 194.609375 513.046875 192.933594 514.722656 191.757812 C 516.316406 190.664062 517.996094 189.90625 519.679688 189.402344 C 521.355469 188.902344 523.285156 188.644531 525.386719 188.644531 C 528.914062 188.644531 532.027344 189.324219 534.628906 190.578125 C 535.132812 190.914062 535.722656 191 536.304688 191 C 537.308594 191 538.234375 190.664062 539.074219 189.828125 C 539.921875 189.070312 540.335938 188.144531 540.335938 187.050781 C 540.335938 185.539062 539.664062 184.367188 538.324219 183.609375 C 534.707031 181.511719 530.429688 180.417969 525.472656 180.417969 C 522.535156 180.417969 519.679688 180.917969 516.910156 181.765625 C 514.132812 182.683594 511.527344 184.03125 509.09375 185.875 C 506.574219 187.726562 504.640625 190.242188 503.132812 193.433594 C 501.617188 196.714844 500.945312 200.492188 500.945312 204.777344 C 500.945312 208.886719 501.449219 212.503906 502.628906 215.695312 C 503.800781 218.882812 505.230469 221.402344 506.90625 223.253906 C 508.589844 225.097656 510.601562 226.695312 512.957031 227.867188 C 515.222656 229.050781 517.410156 229.886719 519.421875 230.304688 C 521.441406 230.726562 523.453125 230.894531 525.472656 230.894531 Z M 525.472656 230.894531 " fill-opacity="1" fill-rule="nonzero"/><path fill="#f4f5ff" d="M 547.894531 184.871094 L 547.894531 226.359375 C 547.894531 227.53125 548.230469 228.457031 549.074219 229.21875 C 549.824219 230.054688 550.75 230.390625 551.925781 230.390625 L 577.210938 230.390625 C 578.214844 230.390625 579.140625 230.054688 579.980469 229.21875 C 580.820312 228.457031 581.242188 227.53125 581.242188 226.359375 C 581.242188 225.265625 580.820312 224.339844 579.980469 223.503906 C 579.140625 222.746094 578.214844 222.328125 577.210938 222.328125 L 556.464844 222.328125 L 556.464844 210.570312 L 572.667969 210.570312 C 573.683594 210.570312 574.601562 210.234375 575.445312 209.390625 C 576.285156 208.640625 576.707031 207.714844 576.707031 206.539062 C 576.707031 205.449219 576.285156 204.523438 575.445312 203.683594 C 574.601562 202.925781 573.683594 202.511719 572.667969 202.511719 L 556.464844 202.511719 L 556.464844 188.902344 L 577.210938 188.902344 C 578.214844 188.902344 579.140625 188.566406 579.980469 187.726562 C 580.820312 186.96875 581.242188 186.042969 581.242188 184.871094 C 581.242188 183.777344 580.820312 182.851562 579.980469 182.011719 C 579.140625 181.253906 578.214844 180.839844 577.210938 180.839844 L 551.925781 180.839844 C 550.75 180.839844 549.824219 181.253906 549.074219 182.011719 C 548.230469 182.851562 547.894531 183.777344 547.894531 184.871094 Z M 547.894531 184.871094 " fill-opacity="1" fill-rule="nonzero"/><path fill="#f4f5ff" d="M 221.289062 279.867188 L 230.421875 293.269531 C 230.910156 293.960938 231.640625 294.3125 232.578125 294.3125 C 233.234375 294.3125 233.789062 294.101562 234.277344 293.621094 C 234.765625 293.132812 235.007812 292.578125 235.007812 291.878906 L 235.007812 275.59375 C 235.007812 275.105469 234.832031 274.691406 234.488281 274.339844 C 234.140625 273.992188 233.722656 273.816406 233.234375 273.816406 C 232.753906 273.816406 232.332031 273.992188 231.988281 274.339844 C 231.640625 274.691406 231.464844 275.105469 231.464844 275.59375 L 231.464844 288.511719 L 222.191406 274.859375 C 221.667969 274.164062 221.011719 273.816406 220.171875 273.816406 C 219.480469 273.816406 218.925781 274.0625 218.4375 274.550781 C 217.957031 275.03125 217.746094 275.59375 217.746094 276.25 L 217.746094 292.539062 C 217.746094 293.027344 217.921875 293.445312 218.265625 293.792969 C 218.613281 294.136719 219.027344 294.3125 219.515625 294.3125 C 220.003906 294.3125 220.421875 294.136719 220.765625 293.792969 C 221.113281 293.445312 221.289062 293.027344 221.289062 292.539062 Z M 221.289062 279.867188 " fill-opacity="1" fill-rule="nonzero"/><path fill="#f4f5ff" d="M 283.523438 285.003906 L 283.523438 275.59375 C 283.523438 275.105469 283.347656 274.691406 282.996094 274.339844 C 282.65625 273.992188 282.238281 273.816406 281.75 273.816406 C 281.261719 273.816406 280.847656 273.992188 280.496094 274.339844 C 280.15625 274.691406 279.980469 275.105469 279.980469 275.59375 L 279.980469 284.726562 C 279.980469 289 278.382812 291.121094 275.21875 291.121094 C 272.058594 291.121094 270.496094 289 270.496094 284.726562 L 270.496094 275.59375 C 270.496094 275.105469 270.320312 274.691406 269.972656 274.339844 C 269.628906 273.992188 269.214844 273.816406 268.726562 273.816406 C 268.238281 273.816406 267.820312 273.992188 267.472656 274.339844 C 267.128906 274.691406 266.953125 275.105469 266.953125 275.59375 L 266.953125 285.003906 C 266.953125 291.359375 269.695312 294.523438 275.21875 294.523438 C 280.746094 294.523438 283.523438 291.359375 283.523438 285.003906 Z M 283.523438 285.003906 " fill-opacity="1" fill-rule="nonzero"/><path fill="#f4f5ff" d="M 325.128906 289.902344 C 325.996094 289.902344 326.6875 289.550781 327.214844 288.785156 L 331.238281 282.46875 L 331.238281 292.539062 C 331.238281 293.027344 331.410156 293.445312 331.761719 293.792969 C 332.105469 294.136719 332.527344 294.3125 333.007812 294.3125 C 333.496094 294.3125 333.910156 294.136719 334.261719 293.792969 C 334.613281 293.445312 334.777344 293.027344 334.777344 292.539062 L 334.777344 275.347656 C 334.777344 274.929688 334.613281 274.582031 334.328125 274.265625 C 334.019531 273.992188 333.671875 273.816406 333.253906 273.816406 C 332.695312 273.816406 332.277344 274.0625 331.964844 274.480469 L 325.128906 285.523438 L 318.285156 274.480469 C 317.933594 274.0625 317.519531 273.816406 317 273.816406 C 316.578125 273.816406 316.199219 273.992188 315.921875 274.265625 C 315.609375 274.582031 315.46875 274.929688 315.46875 275.347656 L 315.46875 292.539062 C 315.46875 293.027344 315.644531 293.445312 315.988281 293.792969 C 316.335938 294.136719 316.753906 294.3125 317.242188 294.3125 C 317.730469 294.3125 318.144531 294.136719 318.488281 293.792969 C 318.839844 293.445312 319.011719 293.027344 319.011719 292.539062 L 319.011719 282.46875 L 323.042969 288.785156 C 323.523438 289.550781 324.226562 289.902344 325.128906 289.902344 Z M 325.128906 289.902344 " fill-opacity="1" fill-rule="nonzero"/><path fill="#f4f5ff" d="M 366.726562 275.484375 L 366.726562 292.644531 C 366.726562 293.132812 366.867188 293.511719 367.214844 293.824219 C 367.53125 294.171875 367.910156 294.3125 368.398438 294.3125 L 378.847656 294.3125 C 379.265625 294.3125 379.652344 294.171875 379.992188 293.824219 C 380.34375 293.511719 380.519531 293.132812 380.519531 292.644531 C 380.519531 292.191406 380.34375 291.8125 379.992188 291.460938 C 379.652344 291.148438 379.265625 290.980469 378.847656 290.980469 L 370.269531 290.980469 L 370.269531 286.113281 L 376.976562 286.113281 C 377.390625 286.113281 377.769531 285.972656 378.121094 285.632812 C 378.46875 285.316406 378.636719 284.929688 378.636719 284.449219 C 378.636719 284 378.46875 283.613281 378.121094 283.269531 C 377.769531 282.957031 377.390625 282.78125 376.976562 282.78125 L 370.269531 282.78125 L 370.269531 277.152344 L 378.847656 277.152344 C 379.265625 277.152344 379.652344 277.015625 379.992188 276.664062 C 380.34375 276.351562 380.519531 275.972656 380.519531 275.484375 C 380.519531 275.03125 380.34375 274.652344 379.992188 274.304688 C 379.652344 273.992188 379.265625 273.816406 378.847656 273.816406 L 368.398438 273.816406 C 367.910156 273.816406 367.53125 273.992188 367.214844 274.304688 C 366.867188 274.652344 366.726562 275.03125 366.726562 275.484375 Z M 366.726562 275.484375 " fill-opacity="1" fill-rule="nonzero"/><path fill="#f4f5ff" d="M 427.15625 291.988281 L 426.84375 291.046875 C 426.429688 289.867188 426.050781 288.925781 425.699219 288.234375 C 425.320312 287.578125 424.832031 286.949219 424.207031 286.359375 C 424.90625 286.222656 425.496094 285.871094 425.976562 285.382812 C 426.464844 284.902344 426.816406 284.339844 427.019531 283.722656 C 427.230469 283.09375 427.40625 282.539062 427.507812 281.980469 C 427.574219 281.425781 427.644531 280.90625 427.644531 280.347656 C 427.644531 279.203125 427.433594 278.195312 427.019531 277.292969 C 426.601562 276.425781 426.085938 275.730469 425.421875 275.242188 C 424.757812 274.753906 424.066406 274.414062 423.335938 274.164062 C 422.609375 273.960938 421.878906 273.816406 421.113281 273.816406 L 413.890625 273.816406 C 413.402344 273.816406 412.988281 273.992188 412.636719 274.339844 C 412.292969 274.691406 412.121094 275.105469 412.121094 275.59375 L 412.121094 292.539062 C 412.121094 293.027344 412.292969 293.445312 412.636719 293.792969 C 412.988281 294.136719 413.402344 294.3125 413.890625 294.3125 C 414.378906 294.3125 414.796875 294.136719 415.136719 293.792969 C 415.488281 293.445312 415.664062 293.027344 415.664062 292.539062 L 415.664062 287.261719 L 419.65625 287.261719 C 421.113281 287.261719 422.230469 288.40625 422.988281 290.667969 L 423.824219 293.132812 C 424.101562 293.933594 424.621094 294.3125 425.457031 294.3125 C 425.941406 294.3125 426.390625 294.171875 426.742188 293.824219 C 427.089844 293.480469 427.265625 293.058594 427.265625 292.578125 C 427.265625 292.367188 427.230469 292.191406 427.15625 291.988281 Z M 421.078125 283.890625 L 415.664062 283.890625 L 415.664062 277.152344 L 421.078125 277.152344 C 423.097656 277.152344 424.101562 278.261719 424.101562 280.457031 C 424.101562 281.285156 424 281.949219 423.863281 282.429688 C 423.6875 282.917969 423.441406 283.269531 423.097656 283.472656 C 422.746094 283.683594 422.433594 283.785156 422.15625 283.824219 C 421.878906 283.890625 421.53125 283.890625 421.078125 283.890625 Z M 421.078125 283.890625 " fill-opacity="1" fill-rule="nonzero"/><path fill="#f4f5ff" d="M 468.207031 294.523438 C 469.039062 294.523438 469.839844 294.449219 470.671875 294.277344 C 471.507812 294.101562 472.375 293.757812 473.28125 293.269531 C 474.183594 292.78125 474.941406 292.125 475.640625 291.359375 C 476.335938 290.59375 476.886719 289.550781 477.339844 288.234375 C 477.792969 286.914062 478.039062 285.417969 478.039062 283.722656 C 478.039062 281.949219 477.726562 280.382812 477.136719 279.027344 C 476.546875 277.707031 475.742188 276.664062 474.773438 275.898438 C 473.796875 275.140625 472.753906 274.582031 471.648438 274.203125 C 470.53125 273.851562 469.386719 273.648438 468.207031 273.648438 C 467.027344 273.648438 465.882812 273.851562 464.765625 274.203125 C 463.660156 274.582031 462.578125 275.140625 461.609375 275.898438 C 460.632812 276.664062 459.839844 277.707031 459.25 279.027344 C 458.65625 280.382812 458.375 281.949219 458.375 283.722656 C 458.375 285.417969 458.585938 286.914062 459.039062 288.234375 C 459.488281 289.550781 460.042969 290.59375 460.734375 291.359375 C 461.433594 292.125 462.230469 292.78125 463.132812 293.269531 C 464.039062 293.757812 464.875 294.101562 465.707031 294.277344 C 466.539062 294.449219 467.375 294.523438 468.207031 294.523438 Z M 468.207031 291.121094 C 467.441406 291.121094 466.785156 291.046875 466.160156 290.871094 C 465.53125 290.695312 464.875 290.390625 464.175781 289.902344 C 463.484375 289.414062 462.929688 288.683594 462.515625 287.644531 C 462.089844 286.601562 461.917969 285.355469 461.917969 283.824219 C 461.917969 279.304688 464 277.050781 468.207031 277.050781 C 472.375 277.050781 474.496094 279.304688 474.496094 283.824219 C 474.496094 285.355469 474.285156 286.601562 473.871094 287.644531 C 473.453125 288.683594 472.929688 289.414062 472.238281 289.902344 C 471.539062 290.390625 470.882812 290.695312 470.253906 290.871094 C 469.628906 291.046875 468.9375 291.121094 468.207031 291.121094 Z M 468.207031 291.121094 " fill-opacity="1" fill-rule="nonzero"/><path fill="#f4f5ff" d="M 510.605469 274.339844 C 510.261719 274.480469 509.980469 274.691406 509.773438 274.96875 C 509.5625 275.242188 509.460938 275.59375 509.460938 275.9375 C 509.460938 276.386719 509.601562 276.773438 509.949219 277.082031 C 510.261719 277.429688 510.640625 277.570312 511.09375 277.570312 C 512.691406 277.21875 514.082031 277.050781 515.265625 277.050781 C 517.902344 277.050781 519.257812 277.917969 519.257812 279.652344 C 519.257812 280.519531 518.871094 281.214844 518.144531 281.703125 C 517.378906 282.226562 516.09375 282.746094 514.285156 283.234375 C 513.871094 283.335938 513.558594 283.546875 513.28125 283.859375 C 513.003906 284.203125 512.902344 284.550781 512.902344 284.96875 L 512.902344 288.234375 C 512.902344 288.722656 513.078125 289.136719 513.417969 289.488281 C 513.769531 289.828125 514.183594 290.003906 514.671875 290.003906 C 515.15625 290.003906 515.578125 289.828125 515.917969 289.488281 C 516.269531 289.136719 516.445312 288.722656 516.445312 288.234375 L 516.445312 285.972656 C 520.679688 285.214844 522.800781 283.058594 522.800781 279.550781 C 522.800781 278.4375 522.554688 277.46875 522.070312 276.628906 C 521.582031 275.796875 520.992188 275.207031 520.226562 274.792969 C 519.460938 274.375 518.667969 274.097656 517.902344 273.925781 C 517.136719 273.75 516.335938 273.648438 515.539062 273.648438 C 513.59375 273.648438 511.925781 273.886719 510.605469 274.339844 Z M 512.902344 292.753906 C 512.902344 293.234375 513.078125 293.648438 513.417969 294 C 513.769531 294.347656 514.183594 294.523438 514.671875 294.523438 C 515.15625 294.523438 515.578125 294.347656 515.917969 294 C 516.269531 293.648438 516.445312 293.234375 516.445312 292.753906 C 516.445312 292.265625 516.269531 291.847656 515.917969 291.5 C 515.578125 291.148438 515.15625 290.980469 514.671875 290.980469 C 514.183594 290.980469 513.769531 291.148438 513.417969 291.5 C 513.078125 291.847656 512.902344 292.265625 512.902344 292.753906 Z M 512.902344 292.753906 " fill-opacity="1" fill-rule="nonzero"/></svg>