<svg xmlns="http://www.w3.org/2000/svg" xmlns:xlink="http://www.w3.org/1999/xlink" width="1000" zoomAndPan="magnify" viewBox="0 0 750 299.999988" height="400" preserveAspectRatio="xMidYMid meet" version="1.0"><defs><clipPath id="88d951570b"><path d="M 72.082031 1.394531 L 678.082031 1.394531 L 678.082031 294.496094 L 72.082031 294.496094 Z M 72.082031 1.394531 " clip-rule="nonzero"/></clipPath><clipPath id="5e732d3494"><path d="M 74.707031 121 L 294.222656 121 L 294.222656 286.96875 L 74.707031 286.96875 Z M 74.707031 121 " clip-rule="nonzero"/></clipPath><clipPath id="8bcaa72d73"><path d="M 74.707031 8.777344 L 294.222656 8.777344 L 294.222656 133 L 74.707031 133 Z M 74.707031 8.777344 " clip-rule="nonzero"/></clipPath></defs><g clip-path="url(#88d951570b)"><path fill="#ffffff" d="M 65.667969 1.394531 L 1045.625 1.394531 L 1045.625 295.261719 L 65.667969 295.261719 Z M 65.667969 1.394531 " fill-opacity="1" fill-rule="nonzero"/><path fill="#ffffff" d="M 65.667969 1.394531 L 1045.625 1.394531 L 1045.625 295.261719 L 65.667969 295.261719 Z M 65.667969 1.394531 " fill-opacity="1" fill-rule="nonzero"/></g><path fill="#01313f" d="M 361.800781 148.703125 C 373.394531 148.703125 381.75 141.15625 383.421875 129.027344 L 375.480469 127.625 C 374.261719 136.101562 368.9375 141.363281 361.800781 141.363281 C 352.84375 141.363281 347.335938 134.554688 347.253906 123.4375 C 347.253906 112.34375 352.308594 105.390625 360.398438 105.390625 C 366.316406 105.390625 370.628906 109.785156 371.847656 117.191406 L 379.648438 115.5 C 377.914062 104.671875 370.570312 98.132812 360.398438 98.132812 C 347.128906 98.132812 338.835938 107.886719 338.835938 123.4375 C 338.835938 138.988281 347.664062 148.703125 361.800781 148.703125 Z M 361.800781 148.703125 " fill-opacity="1" fill-rule="nonzero"/><path fill="#01313f" d="M 410.175781 148.765625 C 424.371094 148.765625 433.675781 138.722656 433.675781 123.4375 C 433.675781 108.09375 424.371094 98.132812 410.175781 98.132812 C 395.960938 98.132812 386.652344 108.09375 386.652344 123.4375 C 386.652344 138.722656 395.960938 148.765625 410.175781 148.765625 Z M 410.175781 141.425781 C 401.015625 141.425781 395.070312 134.347656 395.070312 123.4375 C 395.070312 112.464844 401.015625 105.390625 410.175781 105.390625 C 419.316406 105.390625 425.175781 112.464844 425.175781 123.4375 C 425.175781 134.347656 419.316406 141.425781 410.175781 141.425781 Z M 410.175781 141.425781 " fill-opacity="1" fill-rule="nonzero"/><path fill="#01313f" d="M 439.472656 147.28125 L 447.476562 147.28125 L 447.476562 109.910156 L 447.621094 109.910156 L 466.132812 147.28125 L 476.839844 147.28125 L 476.839844 99.535156 L 468.773438 99.535156 L 468.773438 137.050781 L 468.628906 137.050781 L 450.179688 99.535156 L 439.472656 99.535156 Z M 439.472656 147.28125 " fill-opacity="1" fill-rule="nonzero"/><path fill="#01313f" d="M 505.601562 148.703125 C 517.195312 148.703125 525.550781 141.15625 527.222656 129.027344 L 519.28125 127.625 C 518.0625 136.101562 512.738281 141.363281 505.601562 141.363281 C 496.644531 141.363281 491.136719 134.554688 491.054688 123.4375 C 491.054688 112.34375 496.109375 105.390625 504.195312 105.390625 C 510.117188 105.390625 514.429688 109.785156 515.648438 117.191406 L 523.449219 115.5 C 521.714844 104.671875 514.367188 98.132812 504.195312 98.132812 C 490.929688 98.132812 482.636719 107.886719 482.636719 123.4375 C 482.636719 138.988281 491.464844 148.703125 505.601562 148.703125 Z M 505.601562 148.703125 " fill-opacity="1" fill-rule="nonzero"/><path fill="#01313f" d="M 563.734375 148.5 C 566.890625 148.5 569.925781 147.011719 571.949219 144.519531 L 569.328125 140.207031 C 568.378906 141.691406 567.242188 142.433594 566.148438 142.433594 C 564.953125 142.433594 564.210938 141.425781 563.859375 139.816406 L 562.042969 132.679688 C 561.300781 129.914062 560.019531 127.75 557.546875 126.613281 L 557.546875 126.554688 C 564.332031 125.066406 568.441406 120.015625 568.441406 113.890625 C 568.441406 105.269531 561.773438 99.535156 551.601562 99.535156 L 532.085938 99.535156 L 532.085938 147.28125 L 540.503906 147.28125 L 540.503906 127.957031 L 547.910156 127.957031 C 550.738281 127.957031 552.964844 130.183594 553.769531 133.277344 L 556.121094 142.167969 C 557.070312 145.941406 559.546875 148.5 563.734375 148.5 Z M 540.503906 121.625 L 540.503906 106.21875 L 551.003906 106.21875 C 556.390625 106.21875 560.019531 109.25 560.019531 114.011719 C 560.019531 118.59375 556.390625 121.625 551.003906 121.625 Z M 540.503906 121.625 " fill-opacity="1" fill-rule="nonzero"/><path fill="#01313f" d="M 575.792969 147.28125 L 605.753906 147.28125 L 605.753906 140.269531 L 583.945312 140.269531 L 583.945312 125.933594 L 602.390625 125.933594 L 602.390625 119.539062 L 583.945312 119.539062 L 583.945312 106.546875 L 605.09375 106.546875 L 605.09375 99.535156 L 575.792969 99.535156 Z M 575.792969 147.28125 " fill-opacity="1" fill-rule="nonzero"/><path fill="#01313f" d="M 621.378906 147.28125 L 629.878906 147.28125 L 629.878906 106.878906 L 643.144531 106.878906 L 643.144531 99.535156 L 608.109375 99.535156 L 608.109375 106.878906 L 621.378906 106.878906 Z M 621.378906 147.28125 " fill-opacity="1" fill-rule="nonzero"/><path fill="#01313f" d="M 647.660156 147.28125 L 677.621094 147.28125 L 677.621094 140.269531 L 655.8125 140.269531 L 655.8125 125.933594 L 674.257812 125.933594 L 674.257812 119.539062 L 655.8125 119.539062 L 655.8125 106.546875 L 676.960938 106.546875 L 676.960938 99.535156 L 647.660156 99.535156 Z M 647.660156 147.28125 " fill-opacity="1" fill-rule="nonzero"/><path fill="#01313f" d="M 379.027344 213.457031 C 390.230469 213.457031 397.535156 208.074219 397.535156 198.957031 C 397.535156 191.65625 393.410156 187.632812 383.9375 185.714844 L 379.273438 184.765625 C 375.5 183.921875 374.054688 182.785156 374.054688 180.804688 C 374.054688 178.640625 375.726562 177.15625 378.367188 177.15625 C 381.234375 177.15625 383.402344 179.300781 383.648438 182.722656 L 395.082031 180.457031 C 394.480469 172.597656 387.652344 167.875 378.675781 167.875 C 368.359375 167.875 361.65625 173.257812 361.65625 181.816406 C 361.65625 189.078125 365.71875 193.078125 375.128906 195.058594 L 379.875 196.089844 C 383.648438 196.976562 385.195312 198.171875 385.195312 200.214844 C 385.195312 202.484375 382.988281 204.050781 379.625 204.050781 C 375.726562 204.050781 372.796875 201.65625 372.488281 197.410156 L 360.683594 199.308594 C 361.34375 208.546875 368.667969 213.457031 379.027344 213.457031 Z M 379.027344 213.457031 " fill-opacity="1" fill-rule="nonzero"/><path fill="#01313f" d="M 401.027344 212.136719 L 429.542969 212.136719 L 429.542969 201.945312 L 413.613281 201.945312 L 413.613281 194.644531 L 426.550781 194.644531 L 426.550781 185.902344 L 413.613281 185.902344 L 413.613281 179.425781 L 428.945312 179.425781 L 428.945312 169.234375 L 401.027344 169.234375 Z M 401.027344 212.136719 " fill-opacity="1" fill-rule="nonzero"/><path fill="#01313f" d="M 454.121094 213.457031 C 465.925781 213.457031 474.238281 206.09375 475.457031 194.582031 L 463.28125 193.140625 C 462.4375 198.707031 458.972656 202.257812 454.226562 202.257812 C 448.652344 202.257812 445.1875 197.761719 445.1875 190.6875 C 445.1875 183.507812 448.242188 179.011719 453.089844 179.011719 C 457.050781 179.011719 459.691406 182.0625 460.457031 187.035156 L 472.382812 184.828125 C 471.308594 174.453125 463.757812 167.875 453.027344 167.875 C 440.152344 167.875 432.128906 176.742188 432.128906 190.6875 C 432.128906 204.585938 440.628906 213.457031 454.121094 213.457031 Z M 454.121094 213.457031 " fill-opacity="1" fill-rule="nonzero"/><path fill="#01313f" d="M 497.558594 213.457031 C 509.609375 213.457031 516.5 207.351562 516.5 196.6875 L 516.5 169.234375 L 503.417969 169.234375 L 503.417969 195.71875 C 503.417969 199.863281 501.210938 202.378906 497.558594 202.378906 C 493.84375 202.378906 491.679688 199.800781 491.679688 195.71875 L 491.679688 169.234375 L 478.554688 169.234375 L 478.554688 196.6875 C 478.554688 207.351562 485.507812 213.457031 497.558594 213.457031 Z M 497.558594 213.457031 " fill-opacity="1" fill-rule="nonzero"/><path fill="#01313f" d="M 551.773438 213.085938 C 555.199219 213.085938 558.789062 211.828125 561.078125 209.929688 L 559.097656 204.050781 C 558.375 204.648438 557.53125 205.0625 556.765625 205.0625 C 555.796875 205.0625 555.136719 204.296875 554.847656 203.039062 L 554 199.367188 C 553.464844 197.039062 552.496094 195.304688 550.226562 194.460938 L 550.226562 194.398438 C 555.507812 192.789062 558.5 188.601562 558.5 183.136719 C 558.5 174.328125 552.144531 169.234375 541.230469 169.234375 L 521.585938 169.234375 L 521.585938 212.136719 L 534.648438 212.136719 L 534.648438 196.914062 L 537.824219 196.914062 C 539.683594 196.914062 540.941406 198.359375 541.414062 200.214844 L 542.671875 205.660156 C 543.746094 210.15625 547.046875 213.085938 551.773438 213.085938 Z M 534.648438 188.539062 L 534.648438 178.539062 L 539.96875 178.539062 C 543.332031 178.539062 545.375 180.394531 545.375 183.570312 C 545.375 186.683594 543.332031 188.539062 539.96875 188.539062 Z M 534.648438 188.539062 " fill-opacity="1" fill-rule="nonzero"/><path fill="#01313f" d="M 564.011719 212.136719 L 577.074219 212.136719 L 577.074219 169.234375 L 564.011719 169.234375 Z M 564.011719 212.136719 " fill-opacity="1" fill-rule="nonzero"/><path fill="#01313f" d="M 591.503906 212.136719 L 604.566406 212.136719 L 604.566406 180.332031 L 615.296875 180.332031 L 615.296875 169.234375 L 580.839844 169.234375 L 580.839844 180.332031 L 591.503906 180.332031 Z M 591.503906 212.136719 " fill-opacity="1" fill-rule="nonzero"/><path fill="#01313f" d="M 629.914062 212.136719 L 643.039062 212.136719 L 643.039062 197.449219 L 656.160156 169.234375 L 642.378906 169.234375 L 636.578125 186.375 L 636.457031 186.375 L 630.039062 169.234375 L 616.441406 169.234375 L 629.914062 197.449219 Z M 629.914062 212.136719 " fill-opacity="1" fill-rule="nonzero"/><g clip-path="url(#5e732d3494)"><path fill="#01313f" d="M 263.148438 121.824219 L 263.148438 156.164062 C 263.148438 186.277344 249.304688 227.28125 184.453125 253.84375 C 119.605469 227.28125 105.78125 186.277344 105.78125 156.164062 L 105.78125 121.84375 L 74.707031 145.851562 L 74.707031 156.164062 C 74.707031 189.433594 88.242188 250.402344 178.902344 284.863281 L 184.453125 286.96875 L 190.003906 284.863281 C 280.667969 250.421875 294.203125 189.433594 294.203125 156.164062 L 294.203125 145.832031 Z M 263.148438 121.824219 " fill-opacity="1" fill-rule="nonzero"/></g><g clip-path="url(#8bcaa72d73)"><path fill="#ffb342" d="M 294.203125 45.078125 L 294.203125 132.695312 L 184.453125 47.90625 L 74.707031 132.695312 L 74.707031 93.609375 L 184.453125 8.800781 L 263.148438 69.601562 L 263.148438 45.078125 Z M 294.203125 45.078125 " fill-opacity="1" fill-rule="nonzero"/></g><path fill="#ffb342" d="M 161.367188 114.523438 L 180.347656 114.523438 L 180.347656 133.394531 L 161.367188 133.394531 Z M 161.367188 114.523438 " fill-opacity="1" fill-rule="nonzero"/><path fill="#ffb342" d="M 188.5625 114.523438 L 207.5625 114.523438 L 207.5625 133.394531 L 188.5625 133.394531 Z M 188.5625 114.523438 " fill-opacity="1" fill-rule="nonzero"/><path fill="#ffb342" d="M 161.367188 141.542969 L 180.347656 141.542969 L 180.347656 160.414062 L 161.367188 160.414062 Z M 161.367188 141.542969 " fill-opacity="1" fill-rule="nonzero"/><path fill="#ffb342" d="M 188.5625 141.542969 L 207.5625 141.542969 L 207.5625 160.414062 L 188.5625 160.414062 Z M 188.5625 141.542969 " fill-opacity="1" fill-rule="nonzero"/></svg>