<svg version="1.1" xmlns="http://www.w3.org/2000/svg" xmlns:xlink="http://www.w3.org/1999/xlink" width="29" height="29" viewBox="0,0,256,256"><defs><linearGradient x1="14.8512" y1="5.25781" x2="14.8512" y2="18.4144" gradientUnits="userSpaceOnUse" id="color-1"><stop offset="0" stop-color="#396d32"></stop><stop offset="1" stop-color="#143714"></stop></linearGradient><linearGradient x1="14.8512" y1="9.88086" x2="14.8512" y2="23.7495" gradientUnits="userSpaceOnUse" id="color-2"><stop offset="0" stop-color="#396d32"></stop><stop offset="1" stop-color="#143714"></stop></linearGradient><linearGradient x1="14.8471" y1="13.3457" x2="14.8471" y2="15.6571" gradientUnits="userSpaceOnUse" id="color-3"><stop offset="0" stop-color="#396d32"></stop><stop offset="1" stop-color="#143714"></stop></linearGradient></defs><g fill="none" fill-rule="nonzero" stroke="none" stroke-width="none" stroke-linecap="none" stroke-linejoin="none" stroke-miterlimit="10" stroke-dasharray="" stroke-dashoffset="0" font-family="none" font-weight="none" font-size="none" text-anchor="none" style="mix-blend-mode: normal"><g transform="translate(-3.10012,-0.03226) scale(8.82759,8.82759)"><path d="M10.2283,9.88068v-2.31144c0,-0.61303 0.2436,-1.20095 0.677,-1.63442c0.4335,-0.43348 1.0214,-0.67701 1.6345,-0.67701h4.6228c0.6131,0 1.201,0.24353 1.6345,0.67701c0.4334,0.43347 0.677,1.02139 0.677,1.63442v2.31144M5.60547,16.815l3.6405,0.9095c3.68023,0.9199 7.53023,0.9199 11.21043,0l3.6405,-0.9095" fill="none" stroke="url(#color-1)" stroke-width="2.31143" stroke-linecap="round" stroke-linejoin="miter"></path><path d="M5.60547,12.1923c0,-0.613 0.24352,-1.201 0.677,-1.6344c0.43348,-0.4335 1.0214,-0.67704 1.63443,-0.67704h13.8686c0.613,0 1.2009,0.24354 1.6344,0.67704c0.4335,0.4334 0.677,1.0214 0.677,1.6344v9.2457c0,0.613 -0.2435,1.201 -0.677,1.6344c-0.4335,0.4335 -1.0214,0.6771 -1.6344,0.6771h-13.8686c-0.61303,0 -1.20095,-0.2436 -1.63443,-0.6771c-0.43348,-0.4334 -0.677,-1.0214 -0.677,-1.6344z" fill="none" stroke="url(#color-2)" stroke-width="2.31143" stroke-linecap="butt" stroke-linejoin="round"></path><path d="M14.8471,15.6571c0.6383,0 1.1557,-0.5174 1.1557,-1.1557c0,-0.6383 -0.5174,-1.1557 -1.1557,-1.1557c-0.6383,0 -1.1557,0.5174 -1.1557,1.1557c0,0.6383 0.5174,1.1557 1.1557,1.1557z" fill="url(#color-3)" stroke="none" stroke-width="1" stroke-linecap="butt" stroke-linejoin="miter"></path></g></g></svg>