<svg width="44" height="44" viewBox="0 0 44 44" fill="none" xmlns="http://www.w3.org/2000/svg">
<path d="M21.75 12C25.4766 12 28.5 14.8777 28.5 18.4219C28.5 22.5 24 28.9627 22.3477 31.1948C22.2791 31.2891 22.1892 31.3657 22.0853 31.4186C21.9814 31.4715 21.8665 31.499 21.75 31.499C21.6335 31.499 21.5186 31.4715 21.4147 31.4186C21.3108 31.3657 21.2209 31.2891 21.1523 31.1948C19.5 28.9636 15 22.5033 15 18.4219C15 14.8777 18.0234 12 21.75 12Z" stroke="#679505" stroke-width="1.5" stroke-linecap="round" stroke-linejoin="round"/>
<path d="M21.75 21.0154C20.5332 21.0154 19.5469 20.0291 19.5469 18.8124C19.5469 17.5957 20.5332 16.6094 21.75 16.6094C22.9668 16.6094 23.9531 17.5957 23.9531 18.8124C23.9531 20.0291 22.9668 21.0154 21.75 21.0154Z" stroke="#679505" stroke-width="1.5" stroke-linecap="round" stroke-linejoin="round"/>
</svg>
