<svg version="1.1" xmlns="http://www.w3.org/2000/svg" xmlns:xlink="http://www.w3.org/1999/xlink" width="17" height="20" viewBox="0,0,217.59375,256"><g fill="#f2f7fc" fill-rule="nonzero" stroke="none" stroke-width="1" stroke-linecap="butt" stroke-linejoin="miter" stroke-miterlimit="10" stroke-dasharray="" stroke-dashoffset="0" font-family="none" font-weight="none" font-size="none" text-anchor="none" style="mix-blend-mode: normal"><g transform="translate(-0.00312,0) scale(12.8,12.8)"><path d="M3.5,0h10c0.7956,0 1.5587,0.31607 2.1213,0.87868c0.5626,0.56261 0.8787,1.32567 0.8787,2.12132v14c0,0.7956 -0.3161,1.5587 -0.8787,2.1213c-0.5626,0.5626 -1.3257,0.8787 -2.1213,0.8787h-10c-0.79565,0 -1.55871,-0.3161 -2.12132,-0.8787c-0.56261,-0.5626 -0.87868,-1.3257 -0.87868,-2.1213v-14c0,-0.79565 0.31607,-1.55871 0.87868,-2.12132c0.56261,-0.56261 1.32567,-0.87868 2.12132,-0.87868zM3.5,2c-0.26522,0 -0.51957,0.10536 -0.70711,0.29289c-0.18753,0.18754 -0.29289,0.44189 -0.29289,0.70711v14c0,0.2652 0.10536,0.5196 0.29289,0.7071c0.18754,0.1875 0.44189,0.2929 0.70711,0.2929h10c0.2652,0 0.5196,-0.1054 0.7071,-0.2929c0.1875,-0.1875 0.2929,-0.4419 0.2929,-0.7071v-14c0,-0.26522 -0.1054,-0.51957 -0.2929,-0.70711c-0.1875,-0.18753 -0.4419,-0.29289 -0.7071,-0.29289zM5.5,3h6c0.2652,0 0.5196,0.10536 0.7071,0.29289c0.1875,0.18754 0.2929,0.44189 0.2929,0.70711c0,0.26522 -0.1054,0.51957 -0.2929,0.70711c-0.1875,0.18753 -0.4419,0.29289 -0.7071,0.29289h-6c-0.26522,0 -0.51957,-0.10536 -0.70711,-0.29289c-0.18753,-0.18754 -0.29289,-0.44189 -0.29289,-0.70711c0,-0.26522 0.10536,-0.51957 0.29289,-0.70711c0.18754,-0.18753 0.44189,-0.29289 0.70711,-0.29289zM5.5,15h2c0.26522,0 0.51957,0.1054 0.70711,0.2929c0.18753,0.1875 0.29289,0.4419 0.29289,0.7071c0,0.2652 -0.10536,0.5196 -0.29289,0.7071c-0.18754,0.1875 -0.44189,0.2929 -0.70711,0.2929h-2c-0.26522,0 -0.51957,-0.1054 -0.70711,-0.2929c-0.18753,-0.1875 -0.29289,-0.4419 -0.29289,-0.7071c0,-0.2652 0.10536,-0.5196 0.29289,-0.7071c0.18754,-0.1875 0.44189,-0.2929 0.70711,-0.2929zM5.5,11h6c0.2652,0 0.5196,0.1054 0.7071,0.2929c0.1875,0.1875 0.2929,0.4419 0.2929,0.7071c0,0.2652 -0.1054,0.5196 -0.2929,0.7071c-0.1875,0.1875 -0.4419,0.2929 -0.7071,0.2929h-6c-0.26522,0 -0.51957,-0.1054 -0.70711,-0.2929c-0.18753,-0.1875 -0.29289,-0.4419 -0.29289,-0.7071c0,-0.2652 0.10536,-0.5196 0.29289,-0.7071c0.18754,-0.1875 0.44189,-0.2929 0.70711,-0.2929zM5.5,7h6c0.2652,0 0.5196,0.10536 0.7071,0.29289c0.1875,0.18754 0.2929,0.44189 0.2929,0.70711c0,0.26522 -0.1054,0.51957 -0.2929,0.70711c-0.1875,0.18753 -0.4419,0.29289 -0.7071,0.29289h-6c-0.26522,0 -0.51957,-0.10536 -0.70711,-0.29289c-0.18753,-0.18754 -0.29289,-0.44189 -0.29289,-0.70711c0,-0.26522 0.10536,-0.51957 0.29289,-0.70711c0.18754,-0.18753 0.44189,-0.29289 0.70711,-0.29289z"></path></g></g></svg>