<svg width="24" height="24" viewBox="0 0 24 24" fill="none" xmlns="http://www.w3.org/2000/svg">
<path d="M11.75 2C15.4766 2 18.5 4.87766 18.5 8.42188C18.5 12.5 14 18.9627 12.3477 21.1948C12.2791 21.2891 12.1892 21.3657 12.0853 21.4186C11.9814 21.4715 11.8665 21.499 11.75 21.499C11.6335 21.499 11.5186 21.4715 11.4147 21.4186C11.3108 21.3657 11.2209 21.2891 11.1523 21.1948C9.5 18.9636 5 12.5033 5 8.42188C5 4.87766 8.02344 2 11.75 2Z" stroke="#679505" stroke-width="1.5" stroke-linecap="round" stroke-linejoin="round"/>
<path d="M11.75 11.0154C10.5332 11.0154 9.54688 10.0291 9.54688 8.81241C9.54688 7.59571 10.5332 6.60938 11.75 6.60938C12.9668 6.60938 13.9531 7.59571 13.9531 8.81241C13.9531 10.0291 12.9668 11.0154 11.75 11.0154Z" stroke="#679505" stroke-width="1.5" stroke-linecap="round" stroke-linejoin="round"/>
</svg>
